<svg xmlns="http://www.w3.org/2000/svg" width="1184" height="561.333" version="1.0" viewBox="0 0 888 421"><path d="m133.5 36.3-83 29.2L50 124l-.5 58.5-18.2.3-18.3.2v18h80v-10.1c0-29.8 13.2-60.2 36-82.9 11.3-11.3 21.4-18.4 35.3-24.9 33.8-16 72.9-16 106.4-.1 13.9 6.6 24 13.7 35.4 25 15.3 15.2 25.7 32.7 31.7 53.5l2.8 10 7.7.3c4.2.2 7.7-.1 7.7-.6s-1.1-5.2-2.4-10.4c-12.1-47.6-49.4-86.1-96.6-99.7-15.9-4.6-23.1-5.4-43.9-4.9-16.7.5-19.8.8-30.4 3.6-32 8.4-58.9 26.6-78.7 53.3-11.8 15.9-22.1 40.4-25 59.6-.7 4.3-1.4 8.4-1.6 9-.2.9-2.5 1.3-6.9 1.3H64V75.5l77-26.9 76.9-26.9L295 48.6l77 26.9V172h14l-.2-53.2-.3-53.2L302 36.3c-45.9-16.1-83.9-29.2-84.5-29.2-.5 0-38.3 13.2-84 29.2z"/><path d="M257.7 107.5c-5.3 1.8-8.3 4.9-11.7 12-7.2 14.9-6 34.2 2.7 44.5 4.4 5.1 8.5 7 15.3 7 4.4 0 5.5-.5 9.1-3.7 5.1-4.6 8.5-10.8 6.4-11.7-.9-.3-2 .5-2.9 2.2-6.5 12.5-19.4 11.1-25.5-2.8-5.9-13.7-1.8-37.3 7.8-43.7 7.2-4.9 13.5-2 17 7.9 1.7 4.6 4.1 2.5 4.1-3.4v-4.9l-5.2-2.4c-5.9-2.8-11.4-3.1-17.1-1zM154 108.5c0 .8.6 1.5 1.4 1.5.7 0 1.8.6 2.4 1.2.6.7 4.1 14.2 7.8 30 5.8 24.4 7.1 28.8 8.6 28.8 1 0 1.8-.2 1.8-.5 0-1.7 12.2-55.4 13-57.3.5-1.2 1.6-2.2 2.5-2.2.8 0 1.5-.7 1.5-1.5 0-1.2-1.3-1.5-5.5-1.5-4 0-5.5.4-5.5 1.4 0 .8.7 1.6 1.5 2 .8.3 1.5 1.3 1.5 2.3 0 2.2-9.3 44.4-9.7 44-.5-.6-9.3-41.8-9.3-43.8 0-1.2.8-2.3 2-2.6 1.1-.3 2-1.2 2-1.9 0-1.1-1.9-1.4-8-1.4-6.4 0-8 .3-8 1.5zM203 108.5c0 1 1 1.5 3.4 1.5 6.5 0 6.6.3 6.6 28.1 0 15.4-.4 25.8-1 27-.8 1.4-2.1 1.9-5 1.9s-4 .4-4 1.5c0 1.3 2.1 1.5 13 1.5 10.7 0 13-.3 13-1.4 0-1.1-1.4-1.6-4.7-1.8l-4.8-.3-.3-26.9c-.2-19 .1-27.3.9-28.2.6-.8 2.9-1.4 5-1.4 2.8 0 3.9-.4 3.9-1.5 0-1.3-2.1-1.5-13-1.5s-13 .2-13 1.5zM565.1 149.3c-5.8 1.8-11.7 8.3-13.6 15.1-4.9 16.7 3.4 33 17.4 34.4 7.8.7 11.8-.5 16.7-5l4.4-4.1v4.2c0 4 .1 4.1 3.5 4.1h3.5v-27h-29v6h20v2.7c0 4.2-3.6 9.2-7.7 11-4.6 1.9-11.5 1.3-15.1-1.4-8.5-6.3-8.8-24.8-.5-31.3 5.7-4.5 13.8-3.1 17.8 3.1 1.7 2.6 2.4 3 5.4 2.5 1.8-.3 3.5-.7 3.8-1 .2-.2-.5-2.2-1.6-4.4-4.3-8.4-14.8-12.2-25-8.9zM493.7 149.6c-.4.4-.7 11.5-.7 24.6V198h9l-.2-24.3-.3-24.2-3.5-.3c-2-.2-3.9 0-4.3.4zM508 173.5V198h8l.1-18.8v-18.7l9.5 18.7L535 198h10v-49.1l-3.7.3-3.8.3-.5 18.3-.5 18.3-9.2-18.6L518 149h-10v24.5zM602 173.5V198h30v-7h-22v-15h18v-6h-18v-14h21v-7h-29v24.5zM636 173.4V198h8l.1-18.8v-18.7l9.5 18.7L663 198h11l-.2-24.3-.3-24.2-3.7-.3-3.8-.3-.2 19.3-.3 19.3-9.5-19-9.5-19-5.2-.3-5.3-.3v24.5zM680 173.5V198h8v-49h-8v24.5zM694 173.5V198h30v-7h-22v-15h19v-6h-19.1l.3-6.8.3-6.7 10.8-.3 10.8-.3-.3-3.2-.3-3.2-14.7-.3-14.8-.3v24.6zM728.8 149.6c-.5.4-.8 11.5-.8 24.6V198h9v-20h4.3c6.1 0 8.1 1.8 10.1 9.5 2.4 8.5 4.7 11.5 9.1 11.5 4.5 0 8-2.9 7-5.9-.5-1.8-1-2-2.1-1-2.4 2-4.2.2-5.9-5.8-.9-3.2-2.4-6.6-3.3-7.6-1.7-1.9-1.7-1.8 2.1-3.5 5.9-2.5 8.3-11 5.1-17.8-2.7-5.8-7.8-7.6-21.9-8.2-6.6-.2-12.3-.1-12.7.4zm25.3 9.3c3.2 3.2 3.5 4.7 1.8 8.4-1.6 3.4-4.9 4.7-12.4 4.7H737v-16h7.1c6.5 0 7.3.2 10 2.9zM771 173.5V198h8v-49h-8v24.5zM798.1 150.7c-.9 1.9-15.1 45.5-15.1 46.6 0 .4 1.8.7 3.9.7 4 0 4-.1 5.7-5.5l1.8-5.5h18.5l1.7 5.5 1.8 5.5h4.3c2.9 0 4.1-.4 3.8-1.3-.2-.6-3.8-11.7-8-24.5l-7.6-23.2H804c-3.7 0-5.2.4-5.9 1.7zm9.7 18.3c1.8 5.8 3.2 10.9 3.2 11.3 0 .4-3.4.7-7.6.7-5.7 0-7.5-.3-7.1-1.3.2-.6 1.9-6.1 3.7-12 1.9-5.9 3.6-10.4 4-10 .4.4 2.1 5.5 3.8 11.3zM837 149.5c0 .3 3.4 7.3 7.5 15.5l7.5 15v18h9V180.3l7-14.6c3.9-8 7-15.1 7-15.7 0-.7-1.6-1-4.1-.8l-4 .3-4.8 10.7c-2.6 6-5 11-5.3 11.3-.3.3-2.9-4.6-5.8-11l-5.4-11.5h-4.3c-2.4 0-4.3.2-4.3.5zM145.2 178.2l.3 2.3 76.1.3c65.8.2 76.3 0 77.4-1.2.6-.9.9-2 .5-2.6-.4-.7-25.2-1-77.6-1h-77l.3 2.2zM149 188c0 4.5 3.5 10.8 9.3 16.7l5.1 5.3H280.7l5-4.9c5.5-5.2 8.7-10.6 9.8-16.4l.7-3.7H149v3z"/><path d="M342 201.9c0 22-8.1 46.2-22 65.9-23.5 33.3-61.8 53.2-102.5 53.2-55.6 0-105.3-37.4-120.2-90.4l-2.7-9.6H79l.6 2.7c6 27.5 21.5 56 39.7 72.9 22.2 20.8 45.9 32.9 74.4 37.9 11.6 2 36 2 47.6 0 48.2-8.5 87.6-39.9 106.2-84.9 4.1-10 8.2-24.5 9.1-32.7l.7-5.9h15l-.7 6.6c-4.6 44.9-69 129.5-128 168.2-8.9 5.9-23.4 13.2-26.2 13.2-.6 0-5.2-2-10.2-4.4-50.5-24.7-120.6-104.9-138.7-158.9-1.9-5.8-3.5-11.4-3.5-12.6 0-1.9-.5-2.1-7.1-2.1h-7.2l.7 4.2c1.3 8.6 7.1 24.4 14.2 38.7 22.9 46.4 71.5 102 114 130.7 10.5 7 25.3 14.7 32.7 17 5.8 1.8 6 1.8 12.3-.4 9.3-3.3 25.3-12.3 37.4-21 60-43.6 116.6-121.8 123.2-170l1.2-9.2H425v-19h-83v9.9zM516.2 204.1c-5.8 2.9-7.6 6.7-7.3 15.2.2 4.7 4.7 8.2 14.4 11.2 6.1 1.8 9.2 3.4 10.7 5.2 2.6 3.3 2.5 4.6-.4 8-4.7 5.5-15.1 3-18.2-4.3-1.4-3.4-3.3-4.1-6.8-2.8-4.1 1.6.2 10.3 6.9 14.1 5.6 3.2 15.4 3.2 20.9 0 5.2-2.9 7.9-7.9 7.3-13.5-.7-6.5-4.3-9.7-14.7-12.8-10-3.1-12-4.6-12-9 0-4 2.9-6.4 7.8-6.4 3.5 0 8.2 3.7 8.2 6.5 0 1.7 4.5 2.1 6.9.6 3.1-2-2.1-10.1-7.9-12.5-5.5-2.2-10.7-2-15.8.5zM594.6 203.5c-4.7 1.7-9.1 5.7-11.8 11-2.5 4.8-3.5 16.2-1.9 22.1 1.6 6 6.6 12.2 11.4 14.5 8.4 3.7 19.6 1.7 24.5-4.5 2.3-3 3.2-2.4 3.2 2.1 0 3 .3 3.3 3 3.3h3v-27h-28v6h10c9.7 0 10 .1 10 2.3 0 3.7-3.4 8.9-7.1 10.9-7.3 3.9-16 1.3-20.3-6.2-2.9-4.9-2.9-16.1-.1-20.9 4.8-8.1 13.6-10.2 19.4-4.7 1.7 1.6 3.3 3.7 3.6 4.7.5 1.5 1.1 1.6 4.3.7 4.7-1.3 4.6-1.1 2.9-4.5-4.9-9.3-15.9-13.4-26.1-9.8zM547 227.5V252h30v-7h-22v-15h19v-6h-19.1l.3-6.8.3-6.7 10.8-.3 10.8-.3-.3-3.2-.3-3.2-14.7-.3-14.8-.3v24.6zM631.2 222.9c.3 18.3.5 20.2 2.4 22.7 4.3 5.8 6.9 6.9 15.9 6.9s11.6-1.1 15.9-6.9c1.9-2.5 2.1-4.4 2.4-22.7l.3-19.9H660v16.9c0 18.6-.8 22.4-5.1 24.6-4.4 2.3-8.5 1.9-12.1-1.4l-3.3-2.9-.3-18.6-.3-18.6h-8l.3 19.9zM674 227.4V252h8v-20h4.5c6.1 0 8.6 2.6 11 11.4 2.2 8 4.5 10.2 10.2 9.3 5-.9 6.9-2.8 5.3-5.6-.9-1.8-1.4-2-2.6-1.1-2.4 2.1-4 .4-5.3-5.5-.7-3.1-2.1-6.5-3.1-7.5-1.7-1.7-1.7-1.9 1.9-4.1 7-4.6 8.8-13.3 3.9-19.4-3.6-4.6-7.3-5.7-21-6.3l-12.8-.5v24.7zm26.1-14.5c1 1.3 1.9 3.9 1.9 5.7 0 5-4.3 7.4-13.2 7.4H682v-16.2l8.1.4c7 .3 8.3.6 10 2.7zM717 227.5V252h8v-49h-8v24.5zM731 227.3V252h10.3c16.6 0 24.3-3.5 28.4-12.9 2.3-5.4 2.2-17.5-.4-23.1-4.2-9.2-9.6-11.9-26.4-12.7l-11.9-.6v24.6zm25.2-14.6c4.5 2.6 6.8 7.7 6.8 14.8 0 11.7-4.8 16.7-16.6 17.3l-7.4.4v-16.9c0-9.3.3-17.3.8-17.7 1.2-1.3 13.2.2 16.4 2.1zM781.5 226.2c-4.3 12.8-8 23.9-8.3 24.5-.3.9.9 1.3 4 1.3h4.5l1.4-5.3 1.4-5.2 9.6-.3 9.6-.3 1.5 5.3c1.4 5.2 1.5 5.3 5.6 5.6 2.3.2 4.2-.1 4.2-.5 0-.5-3.5-11.4-7.8-24.3l-7.9-23.5-5-.3-5.1-.3-7.7 23.3zm20.5 8.5c0 .2-3.4.3-7.5.3-5.3 0-7.5-.4-7.5-1.2 0-.7 1.7-6.2 3.7-12.3l3.6-11 3.8 12c2.1 6.6 3.9 12.1 3.9 12.2zM818 227.3V252h10.3c16.6 0 24.3-3.5 28.4-12.9 2.3-5.4 2.2-17.5-.4-23.1-4.2-9.2-9.6-11.9-26.4-12.7l-11.9-.6v24.6zm25.2-14.6c4.5 2.6 6.8 7.7 6.8 14.8 0 11.7-4.8 16.7-16.6 17.3l-7.4.4v-16.9c0-9.3.3-17.3.8-17.7 1.2-1.3 13.2.2 16.4 2.1z"/><path d="M164 225.2c0 20.2 4.4 32.8 15.3 44.4 5.3 5.8 13.5 12.4 15.1 12.4.3 0-.9-2-2.8-4.4-4.7-6.2-7-13.5-6.9-22.6.1-21.5 18.8-38.5 40.5-36.7 27.9 2.3 44.2 34.5 28.9 57.2-4.6 6.9-4.6 6.9-1 4.9 6.1-3.4 16.2-14.5 20.1-22 5.4-10.3 6.8-16.7 6.8-31.6V214H164v11.2z"/><path d="M213.1 223.6c-6.8 1.8-10.9 4.3-15.5 9.4-6.7 7.4-8.1 11.3-8.1 22.5 0 8.9.3 10.6 2.7 15 3.5 6.8 9.2 12.2 15.8 15.4 4.7 2.2 6.9 2.6 14.5 2.6 7.5 0 9.8-.4 14-2.4 14.4-7.1 21.9-23 18.1-38.2-2.2-8.5-6.8-15.1-13.8-19.9-8.7-5.8-17.3-7.2-27.7-4.4zm18.4 13.3c5 2.2 10.9 8.6 12.5 13.6.7 2.3 1 6.2.7 9.7-1.7 19-25 27.3-38.6 13.7-11.5-11.5-7.7-30.9 7.4-37.5 4.4-1.9 13.3-1.7 18 .5z"/><path d="M215 240.6c-7.5 3.2-11.1 8.8-11.1 16.9 0 5.9 1 8.5 5 12.8 3.8 4.2 7.3 5.7 13.1 5.7 11.9 0 20.2-9.3 18.6-20.8-1.7-12.2-14.4-19.5-25.6-14.6zm14.4 8.5c8.5 7.4 3.8 19.9-7.4 19.9-3.4 0-4.8-.6-7.6-3.4s-3.4-4.2-3.4-7.6c0-5.2 1.3-7.6 5.3-10 4.7-2.9 9-2.6 13.1 1.1z"/>

    <style>
        svg {
            fill: #fff;
        }
    </style>
</svg>